<svg width="101" height="100" viewBox="0 0 101 100" fill="none" xmlns="http://www.w3.org/2000/svg">
<g clip-path="url(#clip0)">
<path d="M84.288 19.328C81.6443 8.18449 71.5477 0.0147705 59.9994 0.0147705C52.1547 0.0147705 44.8802 3.64411 40.1515 9.81784C29.8301 8.02208 19.5318 14.8571 16.8362 24.846C7.48839 25.8816 0 33.8831 0 43.5672C0 53.9533 8.58265 62.4017 18.8926 62.4017H44.431C46.061 62.4017 47.38 61.0729 47.38 59.4309V52.0039H53.2779V59.4309C53.2779 61.0729 54.5969 62.4017 56.2269 62.4017H78.6954C90.6986 62.4017 100.658 52.5667 100.658 40.4775C100.658 30.4336 93.7742 21.849 84.288 19.328Z" fill="#FEDEFB"/>
<path d="M70.7471 77.6039C70.2922 76.4928 69.215 75.7703 68.0228 75.7703H59.1759V49.033C59.1759 47.3909 57.857 46.0622 56.227 46.0622H44.4311C42.8012 46.0622 41.4822 47.3909 41.4822 49.033V75.7703H32.6353C31.4431 75.7703 30.366 76.4926 29.9111 77.6039C29.4561 78.7151 29.7095 79.9915 30.5504 80.8416L48.2442 98.6665C48.8202 99.2467 49.5747 99.5369 50.3291 99.5369C51.0834 99.5369 51.8381 99.2467 52.414 98.6665L70.1077 80.8416C70.9488 79.9914 71.2022 78.7149 70.7471 77.6039ZM44.4311 40.1205H56.227C57.857 40.1205 59.1759 38.7919 59.1759 37.1498C59.1759 35.5077 57.857 34.179 56.227 34.179H44.4311C42.8012 34.179 41.4822 35.5077 41.4822 37.1498C41.4822 38.7919 42.8012 40.1205 44.4311 40.1205Z" fill="white"/>
</g>
<defs>
<clipPath id="clip0">
<rect width="101" height="99.7334" fill="white" transform="translate(0 0.0147705)"/>
</clipPath>
</defs>
</svg>
