<svg width="123" height="125" viewBox="0 0 123 125" fill="none" xmlns="http://www.w3.org/2000/svg">
<g clip-path="url(#clip0)">
<path d="M26.5557 102.535C22.5599 102.535 19.0232 102.171 15.9804 101.44C10.3296 100.086 6.70088 97.5441 5.19461 93.887C1.33189 84.508 13.3395 72.1699 24.0926 63.4707C30.3094 58.4418 34.6466 54.1755 36.9836 50.791C38.5929 48.4602 39.193 46.6055 38.6294 45.7036C37.0434 43.1648 26.3883 44.0453 17.2443 48.4599C13.9653 50.0429 10.6671 50.4526 7.70698 49.6458C4.84002 48.8644 2.53066 46.9853 1.20432 44.3551C-0.694244 40.5911 -0.335094 35.7648 2.19 31.114C5.04951 25.8464 10.5768 20.8866 18.1737 16.7702C27.0693 11.9505 37.1481 9.30359 46.5871 9.30359C46.6808 9.30359 46.7738 9.30383 46.8675 9.30431C55.9899 9.35514 63.7168 11.7866 68.625 16.1516C73.8405 20.7895 75.2658 27.1131 72.6383 33.9582C68.9097 43.6724 68.4059 50.6661 71.22 53.651C72.6218 55.138 75.7177 56.4393 82.505 54.1927C83.451 53.8795 84.4687 54.3984 84.7791 55.3507C85.0897 56.303 84.5751 57.3287 83.6298 57.6417C75.0513 60.4805 70.7256 58.3979 68.6072 56.1511C64.6691 51.9739 64.8947 44.0667 69.2775 32.6489C71.3507 27.2474 70.3006 22.4839 66.2402 18.8732C62.0467 15.1441 54.9783 12.9798 46.8473 12.9345C46.7604 12.9341 46.6727 12.9338 46.5855 12.9338C37.7326 12.9338 28.2604 15.427 19.8806 19.9674C11.0606 24.746 7.11168 29.6136 5.35124 32.8556C3.40583 36.4393 3.06494 40.0311 4.41649 42.7104C6.30689 46.4585 10.9417 47.4766 15.6866 45.1857C24.3437 41.0066 38.1924 38.1894 41.6789 43.7699C44.5079 48.2978 39.493 55.668 26.3486 66.3016C12.7086 77.336 6.21128 86.8836 8.52281 92.496C9.81647 95.6372 13.746 97.1736 16.8147 97.9093C21.5247 99.0388 27.8996 99.2036 35.2505 98.3856C47.1315 97.064 53.9746 93.0218 60.0119 89.4557C68.8244 84.2503 75.7854 80.1382 92.1079 88.9981C92.9838 89.4736 93.3114 90.5745 92.8394 91.4569C92.3671 92.3393 91.2745 92.6692 90.3986 92.1938C75.8604 84.3028 70.2807 87.5985 61.8348 92.5871C55.8008 96.1513 48.2911 100.587 35.6462 101.993C32.3989 102.355 29.3638 102.535 26.5557 102.535Z" fill="white"/>
<path d="M80.7724 37.6815L101.38 58.4416L109.686 50.0735L89.079 29.3134L80.7724 37.6815Z" fill="white"/>
<path d="M109.688 50.0744L89.0796 29.3134L100.207 18.1037C103.12 15.1694 107.842 15.1694 110.755 18.1037L120.815 28.2388C123.728 31.1732 123.728 35.9305 120.815 38.8651L109.688 50.0744Z" fill="#EAF6FF"/>
<path d="M56.0567 104.1L101.379 58.4419L80.7719 37.6818L35.4492 83.3401L56.0567 104.1Z" fill="#FEDEFB"/>
<path opacity="0.05" d="M42.319 90.2621L49.1887 97.1827L94.5114 51.5242L87.6417 44.6038L42.319 90.2621Z" fill="#5E0D56"/>
<path d="M55.9317 95.4621L51.6424 96.5559C50.5342 96.8386 49.5288 95.8255 49.8094 94.7093L50.8952 90.3883C51.1758 89.272 50.1702 88.259 49.0623 88.5417L44.7729 89.6355C43.6647 89.9182 42.6593 88.9051 42.9399 87.789L44.0257 83.4679C44.3063 82.3517 43.3007 81.3386 42.1928 81.6213L35.4492 83.3412C33.0968 85.7114 31.3171 88.5954 30.2493 91.7696L24.1582 109.874C22.9916 113.342 26.2775 116.652 29.7198 115.477L47.6912 109.34C50.8424 108.265 53.705 106.472 56.0579 104.103L57.7652 97.3088C58.0453 96.1924 57.0397 95.1794 55.9317 95.4621Z" fill="#FEDEFB"/>
<path d="M27.7691 99.14L24.1577 109.874C22.9911 113.342 26.277 116.652 29.7193 115.478L40.3744 111.839L27.7691 99.14Z" fill="white"/>
<path opacity="0.1" d="M120.815 28.2385L116.984 24.3787C119.896 27.313 119.896 32.0703 116.984 35.0047L105.857 46.2143L97.5497 54.5826L52.2255 100.243C49.8731 102.613 47.0102 104.405 43.8591 105.481L25.8877 111.617C25.2256 111.844 24.5695 111.902 23.9495 111.827C24.2625 114.449 26.9394 116.427 29.7192 115.478L47.6906 109.341C50.8417 108.266 53.7044 106.472 56.0572 104.103L101.381 58.4427L109.688 50.0744L120.815 38.8649C123.728 35.9304 123.728 31.1729 120.815 28.2385Z" fill="#CF27B4"/>
</g>
<defs>
<clipPath id="clip0">
<rect width="123" height="123.911" fill="white" transform="translate(0 0.555542)"/>
</clipPath>
</defs>
</svg>
