<svg width="109" height="111" viewBox="0 0 109 111" fill="none" xmlns="http://www.w3.org/2000/svg">
<g clip-path="url(#clip0)">
<path d="M88.3275 110.748H9.39648V8.51379H62.0172L88.3275 35.019V110.748Z" fill="white"/>
<path d="M99.6034 99.3888H20.6724V0.940796H73.2931L99.6034 27.446V99.3888Z" fill="#FEDEFB"/>
<path d="M73.293 27.446H99.6033L73.293 0.940796V27.446Z" fill="#C78CC0"/>
<path d="M35.707 84.2431H31.9484C30.9106 84.2431 30.0691 83.3954 30.0691 82.3498C30.0691 81.3043 30.9106 80.4565 31.9484 80.4565H35.707C36.7449 80.4565 37.5863 81.3043 37.5863 82.3498C37.5863 83.3954 36.7449 84.2431 35.707 84.2431Z" fill="white"/>
<path d="M88.3277 84.2431H43.2243C42.1864 84.2431 41.345 83.3954 41.345 82.3498C41.345 81.3043 42.1864 80.4565 43.2243 80.4565H88.3277C89.3656 80.4565 90.207 81.3043 90.207 82.3498C90.207 83.3954 89.3656 84.2431 88.3277 84.2431Z" fill="white"/>
<path d="M35.707 72.8836H31.9484C30.9106 72.8836 30.0691 72.036 30.0691 70.9904C30.0691 69.9449 30.9106 69.0972 31.9484 69.0972H35.707C36.7449 69.0972 37.5863 69.9449 37.5863 70.9904C37.5863 72.036 36.7449 72.8836 35.707 72.8836Z" fill="white"/>
<path d="M88.3277 72.8836H43.2243C42.1864 72.8836 41.345 72.036 41.345 70.9904C41.345 69.9449 42.1864 69.0972 43.2243 69.0972H88.3277C89.3656 69.0972 90.207 69.9449 90.207 70.9904C90.207 72.036 89.3656 72.8836 88.3277 72.8836Z" fill="white"/>
<path d="M35.707 61.5242H31.9484C30.9106 61.5242 30.0691 60.6766 30.0691 59.631C30.0691 58.5855 30.9106 57.7378 31.9484 57.7378H35.707C36.7449 57.7378 37.5863 58.5855 37.5863 59.631C37.5863 60.6766 36.7449 61.5242 35.707 61.5242Z" fill="white"/>
<path d="M88.3277 61.5242H43.2243C42.1864 61.5242 41.345 60.6766 41.345 59.631C41.345 58.5855 42.1864 57.7378 43.2243 57.7378H88.3277C89.3656 57.7378 90.207 58.5855 90.207 59.631C90.207 60.6766 89.3656 61.5242 88.3277 61.5242Z" fill="white"/>
<path d="M35.707 50.1649H31.9484C30.9106 50.1649 30.0691 49.3171 30.0691 48.2716C30.0691 47.2261 30.9106 46.3784 31.9484 46.3784H35.707C36.7449 46.3784 37.5863 47.2261 37.5863 48.2716C37.5863 49.3171 36.7449 50.1649 35.707 50.1649Z" fill="white"/>
<path d="M88.3277 50.1649H43.2243C42.1864 50.1649 41.345 49.3171 41.345 48.2716C41.345 47.2261 42.1864 46.3784 43.2243 46.3784H88.3277C89.3656 46.3784 90.207 47.2261 90.207 48.2716C90.207 49.3171 89.3656 50.1649 88.3277 50.1649Z" fill="white"/>
<path d="M35.707 38.8055H31.9484C30.9106 38.8055 30.0691 37.9577 30.0691 36.9121C30.0691 35.8667 30.9106 35.0189 31.9484 35.0189H35.707C36.7449 35.0189 37.5863 35.8667 37.5863 36.9121C37.5863 37.9577 36.7449 38.8055 35.707 38.8055Z" fill="white"/>
<path d="M88.3277 38.8055H43.2243C42.1864 38.8055 41.345 37.9577 41.345 36.9121C41.345 35.8667 42.1864 35.0189 43.2243 35.0189H88.3277C89.3656 35.0189 90.207 35.8667 90.207 36.9121C90.207 37.9577 89.3656 38.8055 88.3277 38.8055Z" fill="white"/>
<path d="M31.9485 17.9799H43.2243V29.3393H31.9485V17.9799Z" fill="white"/>
</g>
<defs>
<clipPath id="clip0">
<rect width="109" height="109.807" fill="white" transform="translate(0 0.940796)"/>
</clipPath>
</defs>
</svg>
