<svg width="502" height="502" viewBox="0 0 502 502" fill="none" xmlns="http://www.w3.org/2000/svg">
<path d="M292.833 410.869C337.212 410.869 379.774 393.24 411.155 361.859C442.536 330.477 460.166 287.916 460.166 243.536C460.166 199.156 442.536 156.594 411.155 125.213C379.774 93.8323 337.212 76.2026 292.833 76.2026C248.453 76.2026 205.891 93.8323 174.51 125.213C143.129 156.594 125.499 199.156 125.499 243.536C125.499 287.916 143.129 330.477 174.51 361.859C205.891 393.24 248.453 410.869 292.833 410.869ZM292.833 452.703C177.31 452.703 83.666 359.059 83.666 243.536C83.666 128.013 177.31 34.3693 292.833 34.3693C408.355 34.3693 501.999 128.013 501.999 243.536C501.999 359.059 408.355 452.703 292.833 452.703ZM292.833 327.203C315.022 327.203 336.303 318.388 351.994 302.697C367.685 287.007 376.499 265.726 376.499 243.536C376.499 221.346 367.685 200.065 351.994 184.375C336.303 168.684 315.022 159.869 292.833 159.869C270.643 159.869 249.362 168.684 233.671 184.375C217.981 200.065 209.166 221.346 209.166 243.536C209.166 265.726 217.981 287.007 233.671 302.697C249.362 318.388 270.643 327.203 292.833 327.203ZM292.833 369.036C259.548 369.036 227.627 355.814 204.091 332.278C180.555 308.742 167.333 276.821 167.333 243.536C167.333 210.251 180.555 178.33 204.091 154.794C227.627 131.258 259.548 118.036 292.833 118.036C326.117 118.036 358.039 131.258 381.575 154.794C405.11 178.33 418.333 210.251 418.333 243.536C418.333 276.821 405.11 308.742 381.575 332.278C358.039 355.814 326.117 369.036 292.833 369.036ZM292.833 285.369C281.738 285.369 271.097 280.962 263.252 273.117C255.407 265.271 250.999 254.631 250.999 243.536C250.999 232.441 255.407 221.801 263.252 213.955C271.097 206.11 281.738 201.703 292.833 201.703C303.928 201.703 314.568 206.11 322.413 213.955C330.259 221.801 334.666 232.441 334.666 243.536C334.666 254.631 330.259 265.271 322.413 273.117C314.568 280.962 303.928 285.369 292.833 285.369Z" fill="#5563F2"/>
</svg>
