<svg width="524" height="385" viewBox="0 0 524 385" fill="none" xmlns="http://www.w3.org/2000/svg">
<path d="M292.482 378.905C396.616 378.905 481.032 294.084 481.032 189.452C481.032 84.8206 396.616 0 292.482 0C188.35 0 103.933 84.8206 103.933 189.452C103.933 294.084 188.35 378.905 292.482 378.905Z" fill="#F2F2F2"/>
<path d="M350.111 118.345C377.19 118.345 399.144 96.2869 399.144 69.077C399.144 41.8673 377.19 19.8093 350.111 19.8093C323.03 19.8093 301.078 41.8673 301.078 69.077C301.078 96.2869 323.03 118.345 350.111 118.345Z" fill="#FF6584"/>
<path d="M144.554 36.8154L145.894 64.8912C151.45 72.3367 157.444 80.857 163.359 90.1428L164.204 47.3103L164.67 47.6097C157.827 42.6981 150.871 38.9406 144.088 36.5552L144.554 36.8154Z" fill="#F8B8F0"/>
<path d="M144.915 63.5867L143.617 36.3906C135.999 33.7799 128.606 32.9139 121.85 34.1246C121.498 34.1877 121.152 34.2602 120.808 34.3337C122.525 36.1844 132.53 47.1144 144.915 63.5867Z" fill="#F8B8F0"/>
<path d="M206.434 97.0822L206.884 97.5135C205.038 94.024 203.08 90.6315 201.013 87.3358L188.412 137.148L188.2 136.959C189.111 139.144 189.977 141.315 190.799 143.47L206.434 97.0822Z" fill="#F8B8F0"/>
<path d="M187.239 68.7628L187.703 69.136C181.042 61.2057 173.469 54.0962 165.144 47.9556L164.283 91.6043C169.788 100.333 174.716 108.931 179.068 117.397L187.239 68.7628Z" fill="#F8B8F0"/>
<path d="M95.8447 82.3901C96.5525 89.7471 97.9984 97.0135 100.16 104.078L175.292 111.865C171.371 104.598 167.321 97.7793 163.391 91.5651L96.0358 82.9836L95.8447 82.3901Z" fill="#F8B8F0"/>
<path d="M102.892 112.226L102.69 111.633L178.731 118.425C177.812 116.619 176.883 114.838 175.944 113.08L100.534 105.265L100.336 104.671C101.096 107.162 101.948 109.68 102.892 112.226Z" fill="#F8B8F0"/>
<path d="M200.153 86.2971L200.61 86.702C196.84 80.7443 192.674 75.0491 188.14 69.6549L179.86 118.947C182.73 124.609 185.33 130.192 187.659 135.694L200.153 86.2971Z" fill="#F8B8F0"/>
<path d="M198.543 168.637C201.566 181.776 202.71 194.201 201.955 205.773C206.206 196.669 222.379 158.954 216.334 123.806L198.543 168.637Z" fill="#F8B8F0"/>
<path d="M116.84 138.791C120.863 144.237 125.246 149.406 129.957 154.263L129.774 153.604L197.414 167.586C195.654 160.249 193.459 153.024 190.837 145.951L116.84 138.791Z" fill="#F8B8F0"/>
<path d="M144.333 64.0456C130.928 46.2271 120.351 34.965 120.198 34.8038L120.373 34.4285C110.2 36.7488 103.018 43.703 99.0664 53.7684L144.333 64.0456Z" fill="#F8B8F0"/>
<path d="M191.422 145.142C191.671 145.812 191.926 146.484 192.166 147.151C194.49 153.546 196.464 160.063 198.082 166.673L215.703 122.266L216.134 122.7C215.018 116.521 213.127 110.509 210.507 104.807C209.469 102.571 208.38 100.369 207.244 98.2012L191.422 145.142Z" fill="#F8B8F0"/>
<path d="M162.601 90.327C156.747 81.1507 150.821 72.7328 145.328 65.375L99.0238 54.8617L98.8669 54.2745C95.9761 61.9236 94.9192 71.3202 95.7948 81.8155L162.601 90.327Z" fill="#F8B8F0"/>
<path d="M197.687 168.753L130.542 154.873C158.785 184.003 198.299 206.345 200.82 207.757C201.997 194.923 200.663 181.74 197.687 168.753Z" fill="#F8B8F0"/>
<path d="M190.363 144.755L190.377 144.711C187.149 136.158 183.465 127.787 179.34 119.633L103.112 112.824C104.406 116.268 105.869 119.748 107.5 123.266C109.876 128.277 112.702 133.059 115.942 137.554L190.363 144.755Z" fill="#F8B8F0"/>
<path d="M287.327 131.382L270.538 153.865C270.09 163.16 269.298 173.564 267.959 184.506L295.799 152.058L295.969 152.588C293.815 144.42 290.845 137.068 287.134 130.883L287.327 131.382Z" fill="#F8B8F0"/>
<path d="M270.617 152.235L286.881 130.456C282.671 123.563 277.527 118.159 271.554 114.761C271.244 114.584 270.931 114.419 270.619 114.254C270.766 116.78 271.535 131.61 270.617 152.235Z" fill="#F8B8F0"/>
<path d="M296.731 217.455L296.803 218.076C297.597 214.204 298.243 210.338 298.742 206.474L257.418 236.765L257.375 236.483C256.689 238.75 255.978 240.975 255.242 243.162L296.731 217.455Z" fill="#F8B8F0"/>
<path d="M299.923 183.343L300.044 183.929C299.948 173.552 298.629 163.223 296.115 153.158L267.744 186.224C266.443 196.474 264.78 206.255 262.759 215.565L299.923 183.343Z" fill="#F8B8F0"/>
<path d="M220.885 135.267C216.759 141.387 213.26 147.91 210.441 154.736L263.364 208.884C264.957 200.773 266.166 192.927 267.083 185.621L220.655 135.846L220.885 135.267Z" fill="#F8B8F0"/>
<path d="M207.373 162.763L207.593 162.177L261.849 216.139C262.287 214.161 262.702 212.193 263.096 210.238L209.977 155.891L210.2 155.307C209.205 157.712 208.262 160.197 207.373 162.763Z" fill="#F8B8F0"/>
<path d="M298.739 205.125L298.835 205.729C299.713 198.725 300.12 191.669 300.052 184.609L262.385 217.266C261.002 223.468 259.459 229.432 257.762 235.164L298.739 205.125Z" fill="#F8B8F0"/>
<path d="M245.237 267.512C239.223 279.57 232.218 289.872 224.292 298.3C233.345 294.014 269.741 275.33 287.397 244.384L245.237 267.512Z" fill="#F8B8F0"/>
<path d="M201.252 192.163C200.894 198.935 200.988 205.726 201.533 212.485L201.811 211.861L245.03 265.979C248.333 259.2 251.227 252.228 253.699 245.101L201.252 192.163Z" fill="#F8B8F0"/>
<path d="M269.875 152.214C270.86 129.899 269.863 114.447 269.848 114.225L270.22 114.048C260.914 109.316 250.968 110.069 241.534 115.289L269.875 152.214Z" fill="#F8B8F0"/>
<path d="M254.666 244.852C254.433 245.527 254.203 246.207 253.965 246.876C251.694 253.29 249.079 259.575 246.128 265.703L287.889 242.794L287.945 243.405C291.008 237.93 293.369 232.089 294.971 226.018C295.589 223.63 296.148 221.237 296.648 218.838L254.666 244.852Z" fill="#F8B8F0"/>
<path d="M267.262 184.163C268.578 173.345 269.358 163.063 269.797 153.876L240.807 116.104L241.06 115.551C233.979 119.589 227.2 126.149 221.211 134.794L267.262 184.163Z" fill="#F8B8F0"/>
<path d="M244.503 267.052L201.598 213.331C204.857 253.868 221.11 296.397 222.156 299.102C231.209 289.97 238.549 278.961 244.503 267.052Z" fill="#F8B8F0"/>
<path d="M254.094 243.874L254.133 243.849C257.076 235.194 259.552 226.385 261.55 217.462L207.162 163.366C205.973 166.848 204.891 170.465 203.914 174.219C202.563 179.601 201.704 185.095 201.347 190.635L254.094 243.874Z" fill="#F8B8F0"/>
<path d="M119.924 161.399L129.835 187.684C137.409 193.039 145.73 199.281 154.213 206.275L141.84 165.277L142.375 165.417C134.357 162.871 126.586 161.458 119.4 161.296L119.924 161.399Z" fill="#F8B8F0"/>
<path d="M128.503 186.747L118.902 161.285C110.854 161.169 103.557 162.641 97.5037 165.891C97.1888 166.059 96.8825 166.237 96.5771 166.413C98.7793 167.641 111.657 174.928 128.503 186.747Z" fill="#F8B8F0"/>
<path d="M197.313 199.496L197.874 199.767C195.044 197.022 192.14 194.403 189.159 191.911L192.5 243.197L192.239 243.084C193.778 244.88 195.269 246.674 196.713 248.469L197.313 199.496Z" fill="#F8B8F0"/>
<path d="M170.346 178.526L170.903 178.736C162.128 173.263 152.739 168.852 142.933 165.599L155.541 207.377C163.461 213.969 170.793 220.615 177.537 227.316L170.346 178.526Z" fill="#F8B8F0"/>
<path d="M87.6182 219.87C90.5545 226.647 94.1649 233.109 98.394 239.156L172.244 223.227C166.276 217.533 160.329 212.308 154.679 207.618L87.9823 220.376L87.6182 219.87Z" fill="#F8B8F0"/>
<path d="M103.499 246.056L103.124 245.555L177.53 228.398C176.102 226.966 174.671 225.56 173.236 224.18L99.1152 240.169L98.7441 239.666C100.233 241.798 101.818 243.927 103.499 246.056Z" fill="#F8B8F0"/>
<path d="M188.022 191.189L188.582 191.433C183.164 186.937 177.449 182.815 171.479 179.093L178.767 228.542C183.238 233.036 187.428 237.538 191.336 242.049L188.022 191.189Z" fill="#F8B8F0"/>
<path d="M211.823 269.996C218.739 281.555 223.65 293.015 226.49 304.255C227.733 294.276 231.512 253.385 214.951 221.835L211.823 269.996Z" fill="#F8B8F0"/>
<path d="M124.937 266.988C130.438 270.917 136.196 274.472 142.171 277.628L141.794 277.059L210.423 269.349C206.492 262.917 202.181 256.729 197.513 250.816L124.937 266.988Z" fill="#F8B8F0"/>
<path d="M128.089 187.364C109.859 174.581 96.3355 167.156 96.1411 167.05L96.1914 166.639C87.231 172.004 82.5398 180.849 81.8779 191.649L128.089 187.364Z" fill="#F8B8F0"/>
<path d="M197.82 249.865C198.263 250.424 198.711 250.985 199.146 251.544C203.323 256.905 207.206 262.489 210.778 268.272L213.876 220.568L214.418 220.847C211.456 215.316 207.809 210.185 203.564 205.577C201.888 203.773 200.176 202.017 198.427 200.308L197.82 249.865Z" fill="#F8B8F0"/>
<path d="M153.549 206.685C145.159 199.777 136.934 193.61 129.447 188.32L82.1756 192.702L81.8456 192.191C81.4494 200.364 83.335 209.629 87.396 219.339L153.549 206.685Z" fill="#F8B8F0"/>
<path d="M211.043 270.373L142.916 278.026C178.736 296.959 223.189 305.934 226.022 306.495C223.192 293.923 217.868 281.798 211.043 270.373Z" fill="#F8B8F0"/>
<path d="M196.693 249.825L196.695 249.779C190.994 242.648 184.914 235.831 178.482 229.357L103.894 246.556C106.184 249.429 108.645 252.285 111.278 255.124C115.08 259.151 119.238 262.822 123.703 266.091L196.693 249.825Z" fill="#F8B8F0"/>
<path d="M524 322.019C524 344.739 407.673 385 264.177 385C120.679 385 4.35156 344.739 4.35156 322.019C4.35156 299.298 120.679 302.718 264.177 302.718C407.673 302.718 524 299.298 524 322.019Z" fill="#3F3D56"/>
<path opacity="0.1" d="M524 322.019C524 344.739 407.673 385 264.177 385C120.679 385 4.35156 344.739 4.35156 322.019C4.35156 299.298 120.679 302.718 264.177 302.718C407.673 302.718 524 299.298 524 322.019Z" fill="black"/>
<path d="M264.177 363.16C407.673 363.16 524 344.741 524 322.019C524 299.298 407.673 280.877 264.177 280.877C120.679 280.877 4.35156 299.298 4.35156 322.019C4.35156 344.741 120.679 363.16 264.177 363.16Z" fill="#5563F2"/>
<path opacity="0.1" d="M309.224 279.017C309.224 303.772 274.883 296.115 232.837 296.115C190.79 296.115 156.96 303.772 156.96 279.017C156.96 254.263 191.296 248.879 233.341 248.879C275.389 248.879 309.224 254.263 309.224 279.017Z" fill="black"/>
<path d="M309.224 272.922C309.224 297.676 274.883 290.02 232.837 290.02C190.79 290.02 156.96 297.676 156.96 272.922C156.96 248.167 191.296 242.784 233.341 242.784C275.389 242.784 309.224 248.167 309.224 272.922Z" fill="#3F3D56"/>
<path d="M173.962 204.808C174.886 204.146 175.907 203.632 176.986 203.283C183.838 200.721 191.019 199.151 198.31 198.619C204.649 198.167 211.523 198.705 216.473 202.707C217.244 203.275 217.875 204.013 218.316 204.865C218.94 206.216 218.751 207.786 218.549 209.261C218.503 209.833 218.359 210.393 218.125 210.915C217.458 212.19 215.817 212.638 214.392 212.484C212.967 212.331 211.63 211.725 210.225 211.445C209.355 211.292 208.474 211.202 207.592 211.176L198.776 210.696C193.295 210.398 187.741 210.104 182.364 211.216C180.707 211.514 179.109 212.069 177.621 212.859C176.393 213.551 175.567 214.545 174.426 213.265C172.424 211.017 171.315 206.884 173.962 204.808Z" fill="#2F2E41"/>
<path d="M187.621 208.725C187.621 208.725 199.478 203.385 203.976 209.546C208.474 215.71 201.523 213.244 201.523 213.244L193.754 215.71L185.168 214.067L187.621 208.725Z" fill="#F2F2F2"/>
<path d="M188.235 204.822C188.235 204.822 189.87 212.628 188.644 214.682C187.417 216.737 195.595 219.613 195.595 219.613L203.364 216.325C203.364 216.325 201.319 203.59 203.364 201.124L188.235 204.822Z" fill="#FFB9B9"/>
<path opacity="0.1" d="M188.235 204.822C188.235 204.822 189.87 212.628 188.644 214.682C187.417 216.737 195.595 219.613 195.595 219.613L203.364 216.325C203.364 216.325 201.319 203.59 203.364 201.124L188.235 204.822Z" fill="black"/>
<path d="M180.573 298.682C181.672 300.972 182.576 303.353 183.274 305.796C183.285 305.878 183.313 305.956 183.358 306.024C183.401 306.093 183.457 306.151 183.525 306.196C183.593 306.243 183.669 306.273 183.75 306.286C183.829 306.299 183.912 306.296 183.99 306.276L191.263 306.268C192.16 306.266 193.365 305.975 193.355 305.074C193.349 304.44 192.704 304.045 192.225 303.634C190.892 302.494 190.547 300.61 189.995 298.943C188.924 295.726 186.857 292.94 184.1 290.987C183.727 290.693 183.299 290.479 182.839 290.36C182.378 290.293 181.908 290.318 181.457 290.436C180.181 290.695 175.414 291.579 176.315 293.446C176.701 294.25 178.14 295.086 178.741 295.836C179.444 296.722 180.057 297.675 180.573 298.682Z" fill="#575A89"/>
<path d="M205.863 290.207C205.606 290.748 205.32 291.276 205.008 291.785C203.955 293.533 202.71 295.161 201.73 296.95C201.069 298.041 200.661 299.269 200.535 300.542C200.479 301.178 200.576 301.818 200.818 302.409C201.059 303 201.438 303.524 201.924 303.938C202.978 304.742 204.426 304.779 205.739 304.591C207.051 304.404 208.355 304.027 209.676 304.127C209.231 301.593 211.357 299.362 211.889 296.847C212.038 296.14 212.061 295.406 212.261 294.713C212.476 294.077 212.752 293.465 213.085 292.884C214.142 290.811 214.891 288.594 215.305 286.301C215.356 286.023 208.84 285.977 208.23 286.11C206.322 286.525 206.601 288.617 205.863 290.207Z" fill="#575A89"/>
<path d="M155.65 250.403C153.79 253.328 154.219 257.203 155.525 260.416C156.831 263.629 158.91 266.47 160.333 269.631C161.24 271.647 161.876 273.785 162.898 275.745C164.163 278.172 166.009 280.312 166.859 282.915C167.399 284.575 167.523 286.394 168.4 287.902C168.93 288.709 169.535 289.462 170.206 290.154C172.094 292.326 173.512 294.87 174.368 297.623C175.17 295.225 177.569 293.654 180.032 293.134C182.496 292.617 185.049 292.968 187.541 293.322C186.151 291.158 184.748 288.966 183.918 286.53C183.116 284.172 182.88 281.662 182.341 279.231C181.233 274.245 178.868 269.646 176.526 265.111L188.561 264.152C190.527 263.954 192.502 263.879 194.476 263.931C197.582 264.079 200.625 264.844 203.716 265.197C206.805 265.55 210.075 265.459 212.829 264.006C207.562 271.598 204.82 280.668 204.994 289.92C206.17 289.004 207.536 288.363 208.991 288.046C210.447 287.728 211.953 287.743 213.402 288.086C214.852 288.43 216.206 289.094 217.366 290.031C218.527 290.969 219.464 292.155 220.109 293.504C224.825 287.027 224.264 278.012 228.002 270.919C228.77 269.46 229.712 268.101 230.542 266.677C232.109 263.816 233.452 260.838 234.556 257.766C235.6 255.079 236.653 252.09 235.652 249.387C235.235 248.36 234.628 247.424 233.865 246.626C231.708 244.236 228.706 242.469 225.497 242.396C220.571 242.283 216.502 245.952 212.181 248.332C207.022 251.086 201.187 252.301 195.363 251.835C189.427 251.413 183.758 249.46 178.103 247.741C175.274 246.841 172.398 246.096 169.489 245.509C167.064 245.051 164.754 245.559 162.365 246.181C159.763 246.86 157.148 248.05 155.65 250.403Z" fill="#5563F2"/>
<path d="M207.042 197.015C207.039 200.285 205.747 203.418 203.447 205.728C201.146 208.039 198.029 209.339 194.776 209.34C194.045 209.342 193.316 209.276 192.597 209.145C190.301 208.728 188.172 207.661 186.458 206.071C184.744 204.483 183.515 202.434 182.919 200.168C182.322 197.903 182.381 195.512 183.087 193.28C183.795 191.046 185.122 189.062 186.912 187.558C188.702 186.055 190.881 185.097 193.194 184.793C195.508 184.491 197.858 184.858 199.973 185.852C202.085 186.844 203.872 188.423 205.125 190.399C206.376 192.377 207.042 194.672 207.042 197.015Z" fill="#FFB9B9"/>
<path d="M187.621 208.725C187.621 208.725 189.87 209.752 190.688 210.573C191.506 211.395 193.959 215.915 198.047 213.039C202.136 210.164 202.545 208.519 203.771 208.519C204.998 208.519 206.634 210.985 206.634 210.985L217.878 244.878C214.848 248.315 211.335 251.291 207.452 253.712C200.91 257.821 193.141 259.873 189.461 258.23C185.782 256.588 178.831 255.355 177.604 252.069C176.378 248.781 174.333 238.921 174.333 238.921L180.057 213.861L187.621 208.725Z" fill="#F2F2F2"/>
<path d="M186.041 243.005C186.934 241.07 187.063 238.879 187.139 236.748C187.258 234.639 187.203 232.522 186.972 230.421C186.61 227.673 185.719 225.026 185.157 222.311C184.662 219.931 184.423 217.505 184.441 215.074C184.449 213.965 184.529 212.797 185.13 211.866C185.55 211.217 186.206 210.714 186.469 209.988C186.983 208.56 185.714 207.067 184.32 206.479C182.624 205.841 180.77 205.764 179.027 206.265C177.3 206.767 175.63 207.454 174.049 208.312C172.852 208.824 171.752 209.54 170.795 210.424C169.526 211.745 168.969 213.582 168.518 215.361C168.157 216.785 167.837 218.268 168.111 219.711C168.557 222.054 170.458 223.816 171.471 225.973C172.647 228.478 172.567 231.397 172.1 234.126C171.632 236.856 170.802 239.525 170.546 242.283C170.29 245.039 170.683 248.005 172.402 250.169C173.103 251.052 175.004 253.142 176.287 252.905C177.293 252.719 178.755 250.491 179.566 249.784C181.912 247.743 184.695 245.927 186.041 243.005Z" fill="#5563F2"/>
<path d="M207.464 207.386C207.501 209.677 206.496 211.855 205.312 213.814C204.13 215.774 202.742 217.628 201.87 219.745C200.788 222.397 200.568 225.323 201.239 228.109C201.489 229.057 201.791 229.991 202.142 230.907L204.381 237.082C204.684 238.053 205.12 238.976 205.681 239.822C206.186 240.471 206.782 241.045 207.446 241.528C209.149 242.908 211.106 243.936 213.207 244.548C215.323 245.155 217.579 245.026 219.612 244.181C219.829 235.811 221.166 227.508 223.591 219.496C224.039 218.018 224.528 216.461 224.183 214.954C223.796 213.268 222.447 212.001 221.164 210.844C217.243 207.306 212.932 203.59 207.684 203.114C204.646 202.837 207.438 205.729 207.464 207.386Z" fill="#5563F2"/>
<path d="M180.633 255.15C180.944 255.763 181.137 256.428 181.445 257.042C181.899 257.864 182.46 258.622 183.114 259.296C185.847 262.343 189.189 265.376 193.267 265.56C193.672 265.599 194.08 265.545 194.464 265.408C194.809 265.232 195.105 264.971 195.326 264.653C195.55 264.334 195.69 263.966 195.738 263.579C196.026 261.988 195.328 260.401 194.627 258.944C193.111 255.788 191.404 252.55 188.564 250.514C187.146 249.538 185.526 248.897 183.827 248.64C182.126 248.383 180.39 248.517 178.749 249.03C177.269 249.488 174.816 250.288 176.775 251.644C178.261 252.673 179.772 253.456 180.633 255.15Z" fill="#FFB9B9"/>
<path d="M198.261 214.963C197.836 213.808 197.183 212.751 196.342 211.853C195.494 211.133 194.49 210.622 193.411 210.361C192.013 209.959 190.566 209.752 189.112 209.742C187.379 209.732 185.372 210.198 184.637 211.773C184.052 213.024 184.505 214.506 185.093 215.754C185.344 216.401 185.763 216.969 186.305 217.401C187.052 217.907 188.017 217.89 188.903 218.061C190.275 218.411 191.576 219.002 192.743 219.808L195.775 221.65L200.985 224.815C200.848 224.732 200.896 221.143 200.737 220.554C200.221 218.658 199.061 216.757 198.261 214.963Z" fill="#FFB9B9"/>
<path d="M183.086 304.867C181.866 306.531 182.111 308.909 181.031 310.668C180.096 312.193 178.332 312.993 177.16 314.344C176.786 314.792 176.454 315.273 176.165 315.783C175.079 317.61 174.196 319.953 175.266 321.79C176.127 323.269 177.935 323.846 179.593 324.24C181.691 324.738 183.868 325.136 185.989 324.756C188.109 324.376 190.182 323.07 190.938 321.044C191.086 320.534 191.263 320.033 191.467 319.543C192.617 317.27 196.222 317.245 197.398 314.985C198.222 313.403 197.465 311.493 196.708 309.879L194.397 304.947C193.632 303.31 190.523 304.251 188.903 303.858C186.79 303.347 184.605 302.784 183.086 304.867Z" fill="#2F2E41"/>
<path d="M200.953 300.63C200.008 301.379 199.285 302.374 198.864 303.508C197.72 306.158 197.328 309.064 196.946 311.926C196.728 313.065 196.707 314.233 196.88 315.38C197.373 317.718 199.482 319.441 201.752 320.156C204.021 320.869 206.456 320.76 208.831 320.642C209.598 320.662 210.359 320.508 211.058 320.189C212.252 319.527 212.718 317.972 212.513 316.618C212.309 315.264 211.572 314.057 210.851 312.896C210.131 311.732 209.394 310.527 209.187 309.173C208.84 306.895 209.82 303.551 208.426 301.49C207.031 299.425 202.816 299.318 200.953 300.63Z" fill="#2F2E41"/>
<path d="M206.735 190.593C206.517 189.856 206.036 189.226 205.385 188.823C205.418 188.033 205.322 187.243 205.099 186.484C204.356 184.279 202.596 184.405 200.936 183.429C200.216 183.006 200.26 182.631 199.885 181.936C199.394 181.025 198.659 180.271 197.761 179.758C196.696 179.076 195.571 178.374 194.311 178.288C191.663 178.107 189.632 180.61 187.101 181.413C185.985 181.766 184.787 181.781 183.666 182.117C182.543 182.45 181.424 183.25 181.257 184.413C181.18 184.951 181.317 185.502 181.238 186.038C181.082 187.107 180.15 187.853 179.527 188.731C178.146 190.673 178.305 193.416 179.408 195.527C179.641 195.965 179.907 196.383 180.204 196.778C180.295 197.777 180.581 198.748 181.044 199.636C182.147 201.748 184.046 203.326 186.028 204.637C185.866 203.937 185.768 203.224 185.734 202.505C185.706 202.266 185.737 202.022 185.825 201.798C186.046 201.335 186.63 201.211 187.074 200.957C187.995 200.431 188.357 199.266 188.383 198.202C188.41 197.137 188.185 196.07 188.298 195.011C188.301 194.767 188.357 194.528 188.458 194.307C188.56 194.085 188.707 193.889 188.891 193.728C189.231 193.534 189.62 193.441 190.01 193.461C191.899 193.383 193.871 193.348 195.538 192.45C196.075 192.092 196.652 191.798 197.258 191.576C198.673 191.206 200.12 192.203 200.936 193.423C201.751 194.642 202.158 196.094 202.912 197.354C203.664 198.615 204.965 199.739 206.419 199.589C206.5 199.589 206.583 199.573 206.657 199.54C206.732 199.506 206.8 199.457 206.854 199.395C206.917 199.282 206.945 199.153 206.933 199.023L207.014 193.434C207.082 192.478 206.988 191.518 206.735 190.593Z" fill="#2F2E41"/>
<path d="M167.915 219.83C166.744 221.566 165.395 223.234 164.752 225.227C164.374 226.398 164.257 227.638 163.983 228.838C163.071 232.837 160.437 236.39 160.172 240.484C160.08 241.395 160.212 242.313 160.559 243.159C161.315 244.81 163.123 245.68 164.848 246.227C166.574 246.775 168.425 247.17 169.802 248.348C170.497 249.017 171.125 249.749 171.68 250.535C173.927 253.343 176.948 255.421 180.367 256.508C180.097 254.638 179.97 252.386 181.458 251.229C182.263 250.603 183.339 250.492 184.352 250.404L189.142 249.988C185.949 246.875 182.426 244.118 178.641 241.768C177.317 240.945 175.874 240.079 175.269 238.637C174.956 237.708 174.827 236.727 174.887 235.748C174.854 232.168 174.553 228.595 173.984 225.061C173.591 222.608 173.069 220.175 172.47 217.762C172.303 217.085 171.313 214.048 170.093 214.759C169.806 214.926 169.536 216.853 169.369 217.253C168.969 218.157 168.483 219.02 167.915 219.83Z" fill="#5563F2"/>
<path d="M223.09 213.275L225.047 217.362C225.989 219.043 226.418 220.967 226.28 222.89L226.396 235.154C226.487 236.793 226.351 238.436 225.994 240.038C225.874 240.565 225.644 241.061 225.32 241.496C224.988 241.87 224.598 242.187 224.163 242.432C220.46 244.757 215.66 246.078 211.747 244.13C210.851 243.65 210 243.091 209.202 242.46C207.643 241.3 206.061 240.117 204.894 238.561C203.674 236.929 202.973 234.978 202.153 233.113C200.679 229.765 198.774 226.626 196.488 223.776C196.11 223.4 195.864 222.91 195.787 222.379C195.763 221.305 197.032 220.776 198.021 220.366C199.712 219.667 201.307 218.32 201.589 216.504C205.185 221.242 209.152 226.247 214.825 227.978C214.914 228.036 215.017 228.068 215.123 228.071C215.228 228.074 215.333 228.049 215.425 227.998C215.518 227.947 215.594 227.87 215.647 227.779C215.699 227.686 215.728 227.581 215.726 227.477C216.048 226.123 216.162 224.729 216.397 223.356C216.83 220.859 217.662 218.448 218.862 216.217C219.533 214.966 221.71 210.389 223.09 213.275Z" fill="#5563F2"/>
<path opacity="0.1" d="M174.547 225.097C174.599 228 173.986 230.874 172.753 233.499C172.432 234.08 172.196 234.702 172.051 235.35C171.836 236.732 172.619 238.068 173.513 239.14C175.277 241.246 177.565 242.845 180.144 243.775" fill="black"/>
<path opacity="0.1" d="M217.027 222.651C216.739 223.429 217 224.291 217.222 225.092C217.867 227.414 218.167 229.818 218.115 232.228C218.125 232.269 218.123 232.313 218.111 232.354C218.1 232.396 218.078 232.434 218.047 232.465C218.017 232.497 217.981 232.518 217.939 232.532C217.898 232.545 217.855 232.547 217.812 232.538C216.868 232.596 215.789 232.603 215.147 231.904" fill="black"/>
<path opacity="0.1" d="M377.407 338.78C412.583 338.78 441.099 332.64 441.099 325.066C441.099 317.492 412.583 311.352 377.407 311.352C342.23 311.352 313.714 317.492 313.714 325.066C313.714 332.64 342.23 338.78 377.407 338.78Z" fill="black"/>
<path d="M409.252 202.658L404.703 207.23L409.252 211.801L413.803 202.658H409.252Z" fill="#A0616A"/>
<path d="M410.279 163.021C411.555 163.546 412.163 164.981 412.644 166.28L418.545 182.215L419.694 185.316C420.258 186.836 420.821 188.358 421.298 189.91C421.598 190.89 421.865 191.881 422.096 192.882C422.336 193.738 422.427 194.629 422.367 195.517C422.208 196.494 421.853 197.429 421.324 198.263C419.271 201.856 416.347 204.87 412.824 207.024C412.621 205.706 412.092 204.46 411.287 203.401C410.48 202.342 409.424 201.503 408.211 200.96L411.262 199.274C411.909 198.97 412.489 198.542 412.973 198.016C413.269 197.605 413.479 197.138 413.591 196.644C413.704 196.151 413.715 195.638 413.626 195.139C413.443 194.145 413.138 193.175 412.72 192.254C411.697 189.685 410.808 187.065 410.059 184.405C409.616 182.83 409.208 181.212 408.33 179.835C407.533 178.584 406.379 177.585 405.655 176.292C404.551 174.319 404.579 171.893 405.067 169.684C405.478 167.818 406.168 166.025 406.748 164.209C407.204 162.783 408.912 162.459 410.279 163.021Z" fill="#D0CDE1"/>
<path d="M382.14 120.449C379.794 121.245 377.668 123.108 377.187 125.549C376.964 126.681 377.101 127.857 376.913 128.995C376.478 131.635 374.417 133.651 372.514 135.523C370.613 137.396 368.648 139.572 368.509 142.244C368.359 145.169 370.469 147.91 370.104 150.817C369.679 154.194 366.13 156.382 365.253 159.67C364.666 161.865 365.385 164.23 366.565 166.167C368.816 169.861 372.665 172.369 376.762 173.713C380.86 175.057 385.224 175.341 389.533 175.386C394.782 175.44 400.481 174.987 404.424 171.508C406.677 169.503 408.092 166.715 408.384 163.705C408.758 159.674 407.083 155.508 408.239 151.629C408.966 149.188 410.789 146.958 410.517 144.424C410.25 141.947 408.098 140.191 406.62 138.19C405.242 136.322 404.404 134.115 403.584 131.94L400.777 124.497C400.227 123.033 399.62 121.494 398.39 120.534C396.089 118.736 392.388 119.089 389.697 119.46C387.199 119.804 384.541 119.634 382.14 120.449Z" fill="#5563F2"/>
<path d="M384.311 144.979C384.311 144.979 384.586 153.259 383.762 154.087C382.938 154.915 387.059 160.435 387.059 160.435L394.476 160.159L398.32 157.123L395.024 152.707C395.024 152.707 393.651 145.531 394.75 143.875C395.849 142.219 384.311 144.979 384.311 144.979Z" fill="#A0616A"/>
<path opacity="0.1" d="M384.311 144.979C384.311 144.979 384.586 153.259 383.762 154.087C382.938 154.915 387.059 160.435 387.059 160.435L394.476 160.159L398.32 157.123L395.024 152.707C395.024 152.707 393.651 145.531 394.75 143.875C395.849 142.219 384.311 144.979 384.311 144.979Z" fill="black"/>
<path d="M367.143 208.874L371.812 219.364L375.384 214.948L368.242 205.563L367.143 208.874Z" fill="#A0616A"/>
<path d="M354.643 313.896L352.721 324.661L349.425 329.353L351.347 330.456L354.643 329.904L358.49 328.525L360.138 322.177L363.16 313.896H354.643Z" fill="#A0616A"/>
<path d="M389.805 307.271L388.706 322.728L391.453 324.937L395.849 321.072V309.756L389.805 307.271Z" fill="#A0616A"/>
<path d="M388.844 148.153C394.306 148.153 398.734 143.704 398.734 138.217C398.734 132.729 394.306 128.281 388.844 128.281C383.383 128.281 378.956 132.729 378.956 138.217C378.956 143.704 383.383 148.153 388.844 148.153Z" fill="#A0616A"/>
<path d="M396.473 151.581C396.177 151.438 395.853 151.36 395.524 151.354C395.197 151.348 394.869 151.413 394.568 151.544C393.968 151.811 393.385 152.116 392.824 152.458C391.381 153.212 389.745 153.511 388.13 153.315C387.94 153.301 387.755 153.253 387.581 153.174C387.398 153.059 387.229 152.922 387.079 152.766C386.492 152.288 385.745 152.057 384.993 152.122C384.242 152.187 383.545 152.543 383.049 153.115C382.758 153.478 382.559 153.913 382.242 154.253C381.422 155.135 380.067 155.171 378.865 155.169C376.374 155.099 373.883 155.328 371.445 155.852C368.997 156.383 366.742 157.584 364.929 159.321C364.434 159.789 364.041 160.353 363.771 160.979C363.439 161.838 363.484 162.803 363.186 163.674C362.854 164.644 362.118 165.44 361.821 166.421C361.598 167.16 361.629 167.983 361.254 168.658C362.859 170.054 364.219 171.916 365.824 173.311C366.887 174.236 368 175.236 368.4 176.591C368.58 177.425 368.659 178.278 368.638 179.133C368.836 183.215 371.04 186.919 373.504 190.172C374.179 191.136 374.989 191.999 375.906 192.736C377.151 193.587 378.566 194.158 380.052 194.408C382.859 194.984 385.746 194.983 388.611 194.953C391.572 194.923 394.583 194.86 397.397 193.935C398.828 193.536 400.118 192.731 401.111 191.619C402.268 190.192 402.719 188.124 404.298 187.19C404.68 187.014 405.043 186.796 405.377 186.541C405.7 186.191 405.928 185.764 406.04 185.3C406.592 183.567 406.896 181.763 406.944 179.944C406.903 178.852 406.977 177.759 407.164 176.682C407.437 175.733 407.835 174.825 408.346 173.984L411.619 168.021C411.885 167.535 411.816 166.823 411.841 166.27C411.816 165.472 411.573 164.698 411.136 164.031C409.014 160.262 405.68 157.33 401.681 155.715C401.366 155.607 401.066 155.459 400.789 155.275C400.461 154.999 400.184 154.667 399.97 154.295C399.103 152.98 398.041 151.499 396.473 151.581Z" fill="#D0CDE1"/>
<path d="M355.693 184.055C355.047 185.631 354.574 187.274 354.28 188.952C353.964 191.272 354.336 193.632 355.35 195.741C357.113 199.387 360.585 201.861 363.034 205.082C365.312 208.076 366.668 211.664 368.638 214.868C368.294 214.053 368.712 213.107 369.274 212.425C369.838 211.743 370.557 211.179 370.969 210.396C371.25 209.788 371.427 209.14 371.491 208.474C371.785 206.486 371.944 204.327 370.936 202.593C370.177 201.287 368.866 200.419 367.828 199.325C366.79 198.21 366.028 196.866 365.602 195.402C365.175 193.937 365.097 192.392 365.373 190.892C365.573 189.858 365.94 188.867 366.216 187.852C366.557 186.488 366.815 185.104 366.988 183.706L368.225 175.17C368.554 172.9 368.833 170.387 367.554 168.486C367.304 168.089 366.959 167.76 366.549 167.531C366.21 167.377 365.849 167.274 365.481 167.229C364.134 167.009 362.31 166.416 361.654 167.865C360.861 169.616 360.307 171.522 359.644 173.326L355.693 184.055Z" fill="#D0CDE1"/>
<path d="M402.84 188.726C402.84 188.726 386.511 191.901 382.666 191.901H375.797C375.797 191.901 373.326 196.317 373.326 200.733C373.326 205.149 357.119 266.974 357.119 266.974C357.119 266.974 341.736 317.759 358.767 318.036C375.797 318.312 386.511 319.14 386.787 313.344C387.061 307.549 388.709 232.749 388.709 232.749L391.273 271.211C391.962 280.731 391.227 290.303 389.089 299.606C387.859 304.82 388.051 310.537 394.202 311.687C406.014 313.896 420.848 311.964 420.848 307.824C420.848 303.684 413.157 211.773 413.157 211.773C413.157 211.773 409.31 198.248 407.113 197.145C404.915 196.04 402.84 188.726 402.84 188.726Z" fill="#5563F2"/>
<path d="M351.621 328.8L357.664 326.593L361.784 316.105L366.179 315.552C366.179 315.552 363.708 320.796 362.334 321.624C360.96 322.452 358.762 329.353 358.762 329.353C358.762 329.353 359.861 332.112 354.643 333.216C349.422 334.321 345.578 335.149 345.578 335.149C345.578 335.149 345.027 334.044 347.5 331.284C349.973 328.524 352.859 323.878 352.859 323.878L351.621 328.8Z" fill="#2F2E41"/>
<path d="M388.708 316.103L387.608 324.384C387.608 324.384 390.63 328.8 391.455 328.8C392.278 328.8 396.673 324.937 396.673 324.937C396.673 324.937 396.399 320.796 396.673 319.693C396.948 318.587 397.498 313.344 396.673 313.068C395.85 312.793 395.85 319.22 395.85 319.22L392.278 323.003L388.835 320.929L388.708 316.103Z" fill="#2F2E41"/>
<path d="M389.669 138.217C395.585 138.217 400.382 135.622 400.382 132.421C400.382 129.219 395.585 126.625 389.669 126.625C383.753 126.625 378.956 129.219 378.956 132.421C378.956 135.622 383.753 138.217 389.669 138.217Z" fill="#5563F2"/>
<path d="M0 246.166C0 278.68 20.3008 304.991 45.3888 304.991L0 246.166Z" fill="#3F3D56"/>
<path d="M45.3896 304.991C45.3896 272.11 68.0441 245.505 96.0409 245.505L45.3896 304.991Z" fill="#F8B8F0"/>
<path d="M16.4463 249.113C16.4463 280 29.3917 304.991 45.3899 304.991L16.4463 249.113Z" fill="#F8B8F0"/>
<path d="M45.3896 304.991C45.3896 262.978 71.5748 228.98 103.935 228.98L45.3896 304.991Z" fill="#3F3D56"/>
<path d="M35.8398 305.406C35.8398 305.406 42.2768 305.207 44.2167 303.818C46.1567 302.431 54.1182 300.773 54.5995 303C55.0807 305.225 64.2729 314.07 57.0056 314.13C49.7386 314.188 40.1199 312.992 38.1838 311.807C36.2476 310.622 35.8398 305.406 35.8398 305.406Z" fill="#A8A8A8"/>
<path opacity="0.2" d="M57.1354 313.355C49.8682 313.413 40.2497 312.217 38.3136 311.032C36.8389 310.129 36.2514 306.891 36.0547 305.398C35.9187 305.403 35.8398 305.406 35.8398 305.406C35.8398 305.406 36.2476 310.622 38.1838 311.807C40.1199 312.992 49.7386 314.188 57.0058 314.13C59.1035 314.112 59.8281 313.363 59.7883 312.252C59.4969 312.924 58.6968 313.342 57.1354 313.355Z" fill="black"/>
</svg>
