<svg width="651" height="472" viewBox="0 0 651 472" fill="none" xmlns="http://www.w3.org/2000/svg">
<path d="M79.92 229.908H85.7148V459.745H79.92V229.908Z" fill="#5563F2"/>
<path d="M26.4395 259.197C26.0721 339.566 82.3836 404.981 82.3836 404.981C82.3836 404.981 139.294 340.09 139.664 259.721C140.034 179.353 83.7201 113.94 83.7201 113.94C83.7201 113.94 26.8094 178.829 26.4395 259.197Z" fill="#5563F2"/>
<path d="M195.787 338.051H198.766V456.261H195.787V338.051Z" fill="#5563F2"/>
<path d="M168.283 353.115C168.093 394.449 197.055 428.094 197.055 428.094C197.055 428.094 226.326 394.718 226.516 353.385C226.706 312.049 197.743 278.403 197.743 278.403C197.743 278.403 168.471 311.779 168.283 353.115Z" fill="#5563F2"/>
<path d="M137.038 472C92.442 472 56.2868 466.435 56.2868 459.572C56.2868 452.707 92.442 447.142 137.038 447.142C181.636 447.142 217.789 452.707 217.789 459.572C217.789 466.435 181.636 472 137.038 472Z" fill="#5563F2"/>
<path d="M130.38 169.905C137.22 158.298 150.756 157.757 150.756 157.757C150.756 157.757 163.946 156.064 172.407 173.742C180.292 190.219 191.177 206.128 174.157 209.985L171.085 200.379L169.181 210.7C166.757 210.875 164.328 210.917 161.899 210.826C143.674 210.235 126.319 210.998 126.878 204.432C127.621 195.702 123.796 181.074 130.38 169.905Z" fill="#2F2E41"/>
<path d="M155.02 191.764C155.02 191.764 146.179 204.193 151.483 214.254C156.788 224.315 139.105 234.969 139.105 234.969L126.139 206.56C126.139 206.56 141.464 196.499 137.336 187.03L155.02 191.764Z" fill="#FBBEBE"/>
<path d="M149.126 197.091C140.661 197.091 133.8 190.202 133.8 181.703C133.8 173.205 140.661 166.316 149.126 166.316C157.589 166.316 164.449 173.205 164.449 181.703C164.449 190.202 157.589 197.091 149.126 197.091Z" fill="#FBBEBE"/>
<path d="M202.161 199.492L189.356 182.9C189.356 182.9 184.846 165.509 178.313 166.391C171.784 167.272 180.895 187.247 180.895 187.247L193.619 205.612L202.161 199.492Z" fill="#FBBEBE"/>
<path d="M137.334 420.214L133.209 442.113L124.368 444.481L126.726 418.439L137.334 420.214Z" fill="#FBBEBE"/>
<path d="M48.3311 396.542L32.416 418.439L25.9332 421.397L20.6265 412.521L36.5415 391.807L48.3311 396.542Z" fill="#FBBEBE"/>
<path d="M140.872 225.499L150.704 212.503C150.704 212.503 169.756 216.03 171.524 217.805C173.292 219.581 166.806 252.132 166.806 252.132C166.806 252.132 165.628 261.009 160.324 265.743L155.019 269.295L111.402 260.418L109.763 240.931C109.163 233.833 110.051 226.688 112.362 219.954C114.675 213.22 118.364 207.046 123.189 201.826L130.779 202.868L140.872 225.499Z" fill="#575A89"/>
<path d="M169.162 218.989L172.111 217.806L185.666 216.622C185.666 216.622 190.381 215.438 189.202 213.071C188.024 210.703 186.845 210.111 189.202 209.52C191.56 208.928 192.152 208.336 191.56 206.561C190.97 204.785 187.434 201.234 187.434 201.234L197.456 192.948C197.456 192.948 197.998 193.333 198.874 194.046C203.85 198.091 219.59 212.683 208.064 227.275C194.509 244.438 178.594 254.499 165.626 250.948L169.162 218.989Z" fill="#575A89"/>
<path d="M156.198 266.337V274.622C156.198 274.622 161.505 284.683 159.734 294.152C157.966 303.622 157.377 308.357 157.377 308.357C157.184 316.411 155.794 324.39 153.251 332.031C149.126 343.866 162.683 421.397 145.59 422.581C128.496 423.765 119.064 424.948 113.76 419.03C108.456 413.111 122.602 311.315 122.602 311.315C122.602 311.315 74.2682 412.521 64.2492 408.376C54.2278 404.235 28.8832 394.765 31.83 389.44C34.7767 384.112 109.045 265.743 109.045 265.743L111.402 260.418L156.198 266.337Z" fill="#2F2E41"/>
<path d="M127.904 437.969C127.904 437.969 137.334 437.378 137.334 440.336C137.334 443.297 142.051 453.357 142.051 453.357C142.051 453.357 145.587 465.194 136.155 464.01C126.725 462.827 120.832 452.173 120.832 452.173L123.189 440.929L127.904 437.969Z" fill="#2F2E41"/>
<path d="M29.4753 417.255C29.4753 417.255 37.7262 411.927 37.1369 415.479C36.5475 419.03 35.9582 428.499 31.8327 429.092C27.7072 429.683 15.3284 433.234 14.739 434.418C14.1497 435.602 0.00280793 440.336 0.00280793 432.644C0.00280793 424.948 8.84554 419.03 8.84554 419.03L18.8645 411.337C18.8645 411.337 25.3474 410.744 26.5285 414.888C27.7072 419.03 29.4753 417.255 29.4753 417.255Z" fill="#2F2E41"/>
<path d="M149.1 167.643C143.695 167.643 139.313 163.244 139.313 157.816C139.313 152.389 143.695 147.99 149.1 147.99C154.506 147.99 158.888 152.389 158.888 157.816C158.888 163.244 154.506 167.643 149.1 167.643Z" fill="#2F2E41"/>
<path d="M159.913 155.23C159.913 152.803 159.018 150.462 157.4 148.658C155.785 146.854 153.561 145.715 151.157 145.459C151.499 145.423 151.842 145.404 152.187 145.404C154.782 145.404 157.272 146.439 159.107 148.282C160.941 150.125 161.975 152.624 161.975 155.23C161.975 157.837 160.941 160.336 159.107 162.179C157.272 164.022 154.782 165.057 152.187 165.057C151.842 165.057 151.499 165.038 151.157 165.002C153.561 164.747 155.785 163.607 157.4 161.803C159.018 159.999 159.913 157.657 159.913 155.23Z" fill="#2F2E41"/>
<path d="M133.405 168.787L146.775 161.753L165.242 164.631L169.064 181.574L159.553 181.207L156.895 174.982V181.104L152.506 180.935L149.961 171.025L148.368 181.574L132.766 181.254L133.405 168.787Z" fill="#2F2E41"/>
<path d="M134.205 267.708L154.827 268.266C154.827 268.266 172.424 271.704 171.438 264.575C170.449 257.443 153.284 259.936 153.284 259.936L134.493 257.057L134.205 267.708Z" fill="#FBBEBE"/>
<path d="M117.89 200.822C116.854 200.665 115.796 200.884 114.906 201.44C114.016 201.997 113.353 202.854 113.037 203.857C109 216.632 96.5621 259.38 108.919 265.244C123.475 272.151 134.096 271.85 134.096 271.85L139.782 257.794L134.606 252.918L129.08 217.243L126.432 202.122L117.89 200.822Z" fill="#575A89"/>
<path opacity="0.4" d="M121.717 224.611L124.074 248.284L144.704 257.163L121.717 251.835V224.611Z" fill="black"/>
<path d="M232.972 146.458C226.327 148.226 220.579 152.419 216.85 158.217L214.922 161.216L214.826 161.34L181.001 171.277C180.38 171.459 179.857 171.879 179.541 172.445C179.226 173.011 179.144 173.679 179.314 174.305L181.941 183.972C182.027 184.287 182.172 184.582 182.372 184.84C182.572 185.098 182.821 185.313 183.102 185.474C183.386 185.635 183.696 185.739 184.019 185.778C184.342 185.818 184.67 185.793 184.983 185.705L218.816 176.21V176.211L222.214 177.501C228.472 179.876 235.335 180.11 241.736 178.167L232.972 146.458Z" fill="#5563F2"/>
<path d="M197.349 174.495C197.028 173.396 198.434 172.016 200.485 171.413C202.54 170.81 204.463 171.212 204.784 172.311C205.104 173.411 203.699 174.79 201.647 175.394C199.593 175.997 197.669 175.595 197.349 174.495Z" fill="#575A89"/>
<path d="M199.08 175.509C198.295 175.509 197.659 174.871 197.659 174.083C197.659 173.296 198.295 172.657 199.08 172.657C199.864 172.657 200.5 173.296 200.5 174.083C200.5 174.871 199.864 175.509 199.08 175.509Z" fill="#3F3D56"/>
<path d="M230.143 164.77C227.322 156.036 228.225 147.917 232.158 146.637C236.091 145.356 241.568 151.398 244.389 160.132C247.207 168.866 246.307 176.984 242.372 178.265C238.438 179.546 232.964 173.504 230.143 164.77Z" fill="#F8B8F0"/>
<path opacity="0.4" d="M231.196 164.461C228.479 156.045 229.216 148.202 232.794 146.495C232.577 146.522 232.365 146.57 232.161 146.636C228.227 147.917 227.325 156.036 230.143 164.77C232.964 173.504 238.441 179.546 242.374 178.265C242.517 178.218 242.655 178.162 242.791 178.097C238.922 178.592 233.867 172.735 231.196 164.461Z" fill="black"/>
<path d="M232.528 146.489L309.294 86.6983C322.866 76.0491 335.894 64.7134 348.322 52.7352C370.205 31.7915 399.911 15.0466 434.496 6.13147C518.525 -15.5284 585.093 22.8772 615.37 79.2698C661.637 165.444 697.094 305.28 491.948 230.846C447.083 214.567 401.67 212.836 367.236 204.262L242.547 178.448L232.528 146.489Z" fill="#F8B8F0"/>
<path d="M462.99 45.8767C460.711 45.8767 458.864 44.0218 458.864 41.7337C458.864 39.4456 460.711 37.5908 462.99 37.5908C465.269 37.5908 467.116 39.4456 467.116 41.7337C467.116 44.0218 465.269 45.8767 462.99 45.8767Z" fill="#F2F2F2"/>
<path d="M382.845 51.3094H383.917V50.231H384.127V51.3094H385.202V51.5202H384.127V52.5984H383.917V51.5202H382.845V51.3094Z" fill="#F2F2F2"/>
<path d="M274.98 141.269H276.053V140.19H276.263V141.269H277.338V141.479H276.263V142.558H276.053V141.479H274.98V141.269Z" fill="#F2F2F2"/>
<path d="M282.643 169.085H283.718V168.007H283.927V169.085H285V169.296H283.927V170.374H283.718V169.296H282.643V169.085Z" fill="#F2F2F2"/>
<path d="M612.13 192.759H613.205V191.68H613.414V192.759H614.488V192.969H613.414V194.048H613.205V192.969H612.13V192.759Z" fill="#F2F2F2"/>
<path d="M564.974 63.738H566.048V62.6598H566.258V63.738H567.332V63.9488H566.258V65.027H566.048V63.9488H564.974V63.738Z" fill="#F2F2F2"/>
<path d="M381.664 173.82H382.739V172.741H382.949V173.82H384.021V174.031H382.949V175.109H382.739V174.031H381.664V173.82Z" fill="#F2F2F2"/>
<path d="M494.244 25.8604H495.318V24.782H495.528V25.8604H496.602V26.071H495.528V27.1494H495.318V26.071H494.244V25.8604Z" fill="#F2F2F2"/>
<path d="M493.828 111.072L495.166 111.279C494.748 113.966 494.417 116.712 494.176 119.429L492.826 119.311C493.068 116.559 493.404 113.789 493.828 111.072Z" fill="#E6E6E6"/>
<path d="M497.492 94.891L498.788 95.2874C498.004 97.8915 497.303 100.561 496.708 103.218L495.381 102.916C495.989 100.229 496.702 97.5305 497.492 94.891Z" fill="#E6E6E6"/>
<path d="M503.331 79.3733L504.562 79.9414C503.431 82.4213 502.37 84.9661 501.409 87.511L500.142 87.0316C501.114 84.4571 502.181 81.8766 503.331 79.3733Z" fill="#E6E6E6"/>
<path d="M511.232 64.8259L512.375 65.5539C510.919 67.8502 509.522 70.2295 508.225 72.6147L507.035 71.9635C508.343 69.5489 509.758 67.1461 511.232 64.8259Z" fill="#E6E6E6"/>
<path d="M521.047 51.4917L522.079 52.3734C520.322 54.4448 518.613 56.611 516.998 58.8008L515.914 57.99C517.54 55.7765 519.267 53.5868 521.047 51.4917Z" fill="#E6E6E6"/>
<path d="M532.592 39.6195L533.494 40.6315C531.466 42.4485 529.48 44.36 527.588 46.3073L526.615 45.3544C528.531 43.3836 530.541 41.4541 532.592 39.6195Z" fill="#E6E6E6"/>
<path d="M545.626 29.4279L546.387 30.5525C544.135 32.0735 541.907 33.6951 539.767 35.3699L538.93 34.2986C541.1 32.6061 543.351 30.9667 545.626 29.4279Z" fill="#E6E6E6"/>
<path d="M557.493 22.3494V23.8882C556.084 24.628 554.687 25.4032 553.32 26.1965L552.642 25.0187C554.233 24.0953 555.851 23.2056 557.493 22.3494Z" fill="#E6E6E6"/>
<path d="M493.74 127.825L492.385 127.8C492.36 129.174 492.359 130.554 492.38 131.905L493.735 131.884C493.714 130.549 493.716 129.183 493.74 127.825Z" fill="#E6E6E6"/>
<path d="M573.402 227.664L574.74 227.872C574.322 230.558 573.992 233.304 573.75 236.021L572.4 235.903C572.642 233.151 572.978 230.381 573.402 227.664Z" fill="#E6E6E6"/>
<path d="M577.06 211.483L578.356 211.88C577.573 214.484 576.871 217.153 576.276 219.811L574.95 219.509C575.557 216.822 576.27 214.123 577.06 211.483Z" fill="#E6E6E6"/>
<path d="M582.905 195.965L584.137 196.534C583.005 199.013 581.944 201.558 580.983 204.103L579.716 203.624C580.688 201.049 581.755 198.469 582.905 195.965Z" fill="#E6E6E6"/>
<path d="M590.805 181.418L591.948 182.146C590.492 184.442 589.095 186.822 587.799 189.207L586.608 188.556C587.917 186.141 589.331 183.738 590.805 181.418Z" fill="#E6E6E6"/>
<path d="M600.622 168.084L601.653 168.966C599.897 171.037 598.187 173.203 596.573 175.393L595.488 174.582C597.115 172.369 598.842 170.179 600.622 168.084Z" fill="#E6E6E6"/>
<path d="M612.166 156.212L613.067 157.224C611.04 159.04 609.053 160.952 607.161 162.899L606.189 161.947C608.104 159.976 610.114 158.046 612.166 156.212Z" fill="#E6E6E6"/>
<path d="M625.2 146.02L625.96 147.145C623.708 148.666 621.48 150.287 619.341 151.962L618.504 150.891C620.673 149.198 622.924 147.559 625.2 146.02Z" fill="#E6E6E6"/>
<path d="M637.066 138.942V140.48C635.658 141.22 634.261 141.995 632.893 142.788L632.215 141.611C633.807 140.687 635.424 139.798 637.066 138.942Z" fill="#E6E6E6"/>
<path d="M573.31 244.417L571.955 244.392C571.93 245.766 571.928 247.148 571.949 248.497L573.304 248.475C573.283 247.14 573.285 245.775 573.31 244.417Z" fill="#E6E6E6"/>
<path d="M301.087 169.072L302.426 169.279C302.007 171.966 301.676 174.713 301.434 177.429L300.086 177.311C300.327 174.559 300.663 171.789 301.087 169.072Z" fill="#E6E6E6"/>
<path d="M304.747 152.891L306.042 153.288C305.258 155.892 304.558 158.561 303.963 161.218L302.637 160.917C303.243 158.23 303.956 155.531 304.747 152.891Z" fill="#E6E6E6"/>
<path d="M310.592 137.373L311.822 137.941C310.69 140.421 309.63 142.966 308.668 145.511L307.401 145.032C308.375 142.457 309.44 139.877 310.592 137.373Z" fill="#E6E6E6"/>
<path d="M318.49 122.826L319.634 123.554C318.179 125.85 316.781 128.229 315.484 130.614L314.293 129.964C315.602 127.549 317.017 125.146 318.49 122.826Z" fill="#E6E6E6"/>
<path d="M328.306 109.492L329.339 110.374C327.581 112.445 325.872 114.612 324.257 116.801L323.172 115.99C324.799 113.777 326.528 111.587 328.306 109.492Z" fill="#E6E6E6"/>
<path d="M339.851 97.6195L340.754 98.6315C338.724 100.449 336.739 102.36 334.846 104.307L333.874 103.354C335.79 101.384 337.8 99.4541 339.851 97.6195Z" fill="#E6E6E6"/>
<path d="M352.887 87.4282L353.646 88.5526C351.395 90.0736 349.166 91.6952 347.028 93.3702L346.19 92.299C348.36 90.6064 350.611 88.967 352.887 87.4282Z" fill="#E6E6E6"/>
<path d="M364.752 80.3497V81.8886C363.344 82.6284 361.946 83.4037 360.58 84.1967L359.902 83.0189C361.492 82.0956 363.11 81.206 364.752 80.3497Z" fill="#E6E6E6"/>
<path d="M300.999 185.824L299.645 185.8C299.621 187.173 299.618 188.554 299.64 189.905L300.994 189.884C300.974 188.549 300.977 187.183 300.999 185.824Z" fill="#E6E6E6"/>
<path d="M563.001 118.305H564V117.302H564.195V118.305H565.194V118.501H564.195V119.504H564V118.501H563.001V118.305Z" fill="#F2F2F2"/>
<path d="M574.521 178.884H575.52V177.88H575.715V178.884H576.715V179.08H575.715V180.083H575.52V179.08H574.521V178.884Z" fill="#F2F2F2"/>
<path d="M608.316 231.976H609.316V230.973H609.511V231.976H610.51V232.172H609.511V233.176H609.316V232.172H608.316V231.976Z" fill="#F2F2F2"/>
<path d="M514.302 164.639C523.965 150.217 528.161 132.796 526.128 115.534C524.096 98.2727 515.97 82.3139 503.224 70.5519C490.478 58.79 473.957 52.0041 456.656 51.4241C439.354 50.8443 422.419 56.5093 408.921 67.3918C395.423 78.2742 386.255 93.6535 383.081 110.741C379.905 127.828 382.936 145.491 391.618 160.528C400.303 175.565 414.065 186.979 430.411 192.701C446.757 198.423 464.604 198.074 480.716 191.717C481.761 195.46 483.713 198.885 486.399 201.685C489.086 204.485 492.421 206.572 496.108 207.76C499.794 208.949 503.717 209.2 507.524 208.493C511.331 207.785 514.904 206.141 517.923 203.707C520.942 201.273 523.313 198.125 524.823 194.546C526.334 190.966 526.937 187.066 526.578 183.195C526.219 179.324 524.91 175.603 522.768 172.365C520.625 169.127 517.717 166.472 514.302 164.639Z" fill="#5563F2"/>
<path d="M454.645 82.5241C438.051 82.5241 426.634 91.7662 426.634 105.052C426.634 113.85 430.882 119.937 439.069 124.78C446.769 129.268 449.379 132.556 449.379 138.244C449.379 138.705 449.47 139.161 449.646 139.587C449.821 140.013 450.079 140.4 450.403 140.726C450.728 141.052 451.113 141.311 451.538 141.487C451.962 141.663 452.416 141.754 452.875 141.754H461.359C462.265 141.754 463.136 141.401 463.788 140.769C464.439 140.137 464.821 139.276 464.853 138.366L464.868 137.933C465.62 128.779 462.434 123.092 454.424 118.382C446.946 113.894 443.804 111.05 443.804 105.541C443.804 100.031 449.114 95.9875 455.707 95.9875C460.719 95.9875 464.685 98.4369 466.504 102.436C467.144 103.79 468.156 104.931 469.421 105.726C470.686 106.52 472.152 106.934 473.643 106.918C479.392 106.918 483.189 100.78 480.501 95.6788C476.248 87.6089 467.276 82.5241 454.645 82.5241ZM466.284 158.683C466.284 153.573 462.036 149.53 456.814 149.53C451.548 149.53 447.3 153.529 447.3 158.683C447.3 163.838 451.548 167.837 456.814 167.837C462.08 167.837 466.284 163.838 466.284 158.683Z" fill="#F8B8F0"/>
</svg>
